<svg height="160" viewBox="0 0 160 160" width="160" xmlns="http://www.w3.org/2000/svg"><g fill="#fff" fill-rule="evenodd"><path d="m160 0v160h-160v-160zm-8 8h-144v144h144z"/><path d="m24 98.63v-36.994h13.939c9.805 0 16.271 6.201 16.271 18.497s-6.466 18.497-16.271 18.497zm8.056-7.155h5.883c4.77 0 7.738-2.597 7.738-8.48v-5.724c0-5.883-2.968-8.48-7.738-8.48h-5.883zm56.604 7.155v-5.883h-.265c-.53 3.71-3.922 6.519-9.487 6.519-8.48 0-15.158-6.572-15.158-18.974 0-12.455 6.731-19.292 16.748-19.292 6.572 0 11.501 2.915 14.257 8.586l-6.572 3.763c-1.113-2.862-3.392-5.194-7.685-5.194-4.982 0-8.215 2.862-8.215 9.01v5.936c0 6.148 3.233 9.01 8.215 9.01 4.028 0 7.261-1.908 7.261-5.512v-1.855h-6.89l-.119-6.744h15v21zm18.868 0v-36.994h13.939c9.805 0 16.271 6.201 16.271 18.497s-6.466 18.497-16.271 18.497zm8.056-7.155h5.883c4.77 0 7.738-2.597 7.738-8.48v-5.724c0-5.883-2.968-8.48-7.738-8.48h-5.883z" fill-rule="nonzero"/></g></svg>