<svg height="160" viewBox="0 0 160 160" width="160" xmlns="http://www.w3.org/2000/svg"><g fill="none" fill-rule="evenodd"><path d="m0 0h160v160h-160z" fill="#002e42"/><path d="m23.25 3.60843918c-2.011107-1.16111316-4.488893-1.16111316-6.5 0l-9.32050808 5.38119785c-2.01110699 1.16111317-3.25 3.30693877-3.25 5.62916517v10.7623956c0 2.3222264 1.23889301 4.468052 3.25 5.6291652l9.32050808 5.3811978c2.011107 1.1611132 4.488893 1.1611132 6.5 0l9.3205081-5.3811978c2.011107-1.1611132 3.25-3.3069388 3.25-5.6291652v-10.7623956c0-2.3222264-1.238893-4.468052-3.25-5.62916517z" stroke="#d67c0e" stroke-width="3"/><path d="m72 2.30940108 9.3205081 5.38119784c2.4752086 1.42906236 4 4.07007848 4 6.92820328v10.7623956c0 2.8581248-1.5247914 5.4991409-4 6.9282033l-9.3205081 5.3811978c-2.4752086 1.4290624-5.5247914 1.4290624-8 0l-9.3205081-5.3811978c-2.4752086-1.4290624-4-4.0700785-4-6.9282033v-10.7623956c0-2.8581248 1.5247914-5.49914092 4-6.92820328l9.3205081-5.38119784c2.4752086-1.42906236 5.5247914-1.42906236 8 0z" fill="#004a5d"/><path d="m24 82.3094011 9.3205081 5.3811978c2.4752086 1.4290624 4 4.0700785 4 6.9282033v10.7623958c0 2.858125-1.5247914 5.499141-4 6.928203l-9.3205081 5.381198c-2.4752086 1.429062-5.5247914 1.429062-8 0l-9.32050808-5.381198c-2.47520861-1.429062-4-4.070078-4-6.928203v-10.7623958c0-2.8581248 1.52479139-5.4991409 4-6.9282033l9.32050808-5.3811978c2.4752086-1.4290624 5.5247914-1.4290624 8 0z" fill="#004a5d"/><path d="m71.25 83.6084392c-2.011107-1.1611132-4.488893-1.1611132-6.5 0l-9.3205081 5.3811978c-2.011107 1.1611132-3.25 3.3069388-3.25 5.6291652v10.7623958c0 2.322226 1.238893 4.468052 3.25 5.629165l9.3205081 5.381198c2.011107 1.161113 4.488893 1.161113 6.5 0l9.3205081-5.381198c2.011107-1.161113 3.25-3.306939 3.25-5.629165v-10.7623958c0-2.3222264-1.238893-4.468052-3.25-5.6291652z" stroke="#004a5d" stroke-width="3"/><path d="m47.25 43.6084392c-2.011107-1.1611132-4.488893-1.1611132-6.5 0l-9.3205081 5.3811978c-2.011107 1.1611132-3.25 3.3069388-3.25 5.6291652v10.7623956c0 2.3222264 1.238893 4.468052 3.25 5.6291652l9.3205081 5.3811978c2.011107 1.1611132 4.488893 1.1611132 6.5 0l9.3205081-5.3811978c2.011107-1.1611132 3.25-3.3069388 3.25-5.6291652v-10.7623956c0-2.3222264-1.238893-4.468052-3.25-5.6291652z" stroke="#ffebd3" stroke-width="3"/><path d="m96 42.3094011 9.320508 5.3811978c2.475209 1.4290624 4 4.0700785 4 6.9282033v10.7623956c0 2.8581248-1.524791 5.4991409-4 6.9282033l-9.320508 5.3811978c-2.4752086 1.4290624-5.5247914 1.4290624-8 0l-9.3205081-5.3811978c-2.4752086-1.4290624-4-4.0700785-4-6.9282033v-10.7623956c0-2.8581248 1.5247914-5.4991409 4-6.9282033l9.3205081-5.3811978c2.4752086-1.4290624 5.5247914-1.4290624 8 0z" fill="#d67c0e"/><path d="m48 122.309401 9.3205081 5.381198c2.4752086 1.429062 4 4.070078 4 6.928203v10.762396c0 2.858125-1.5247914 5.499141-4 6.928203l-9.3205081 5.381198c-2.4752086 1.429062-5.5247914 1.429062-8 0l-9.3205081-5.381198c-2.4752086-1.429062-4-4.070078-4-6.928203v-10.762396c0-2.858125 1.5247914-5.499141 4-6.928203l9.3205081-5.381198c2.4752086-1.429062 5.5247914-1.429062 8 0z" fill="#d67c0e"/><path d="m95.25 123.608439c-2.011107-1.161113-4.488893-1.161113-6.5 0l-9.3205081 5.381198c-2.011107 1.161113-3.25 3.306939-3.25 5.629165v10.762396c0 2.322226 1.238893 4.468052 3.25 5.629165l9.3205081 5.381198c2.011107 1.161113 4.488893 1.161113 6.5 0l9.320508-5.381198c2.011107-1.161113 3.25-3.306939 3.25-5.629165v-10.762396c0-2.322226-1.238893-4.468052-3.25-5.629165z" stroke="#ffebd3" stroke-width="3"/><path d="m87.25 3.60843918c-2.011107-1.16111316-4.488893-1.16111316-6.5 0l-9.3205081 5.38119785c-2.011107 1.16111317-3.25 3.30693877-3.25 5.62916517v10.7623956c0 2.3222264 1.238893 4.468052 3.25 5.6291652l9.3205081 5.3811978c2.011107 1.1611132 4.488893 1.1611132 6.5 0l9.3205081-5.3811978c2.011107-1.1611132 3.25-3.3069388 3.25-5.6291652v-10.7623956c0-2.3222264-1.238893-4.468052-3.25-5.62916517z" stroke="#004a5d" stroke-width="3"/><path d="m136 2.30940108 9.320508 5.38119784c2.475209 1.42906236 4 4.07007848 4 6.92820328v10.7623956c0 2.8581248-1.524791 5.4991409-4 6.9282033l-9.320508 5.3811978c-2.475209 1.4290624-5.524791 1.4290624-8 0l-9.320508-5.3811978c-2.475209-1.4290624-4-4.0700785-4-6.9282033v-10.7623956c0-2.8581248 1.524791-5.49914092 4-6.92820328l9.320508-5.38119784c2.475209-1.42906236 5.524791-1.42906236 8 0z" fill="#004a5d"/><path d="m88 82.3094011 9.3205081 5.3811978c2.4752086 1.4290624 3.9999999 4.0700785 3.9999999 6.9282033v10.7623958c0 2.858125-1.5247913 5.499141-3.9999999 6.928203l-9.3205081 5.381198c-2.4752086 1.429062-5.5247914 1.429062-8 0l-9.3205081-5.381198c-2.4752086-1.429062-4-4.070078-4-6.928203v-10.7623958c0-2.8581248 1.5247914-5.4991409 4-6.9282033l9.3205081-5.3811978c2.4752086-1.4290624 5.5247914-1.4290624 8 0z" fill="#004a5d"/><path d="m135.25 83.6084392c-2.011107-1.1611132-4.488893-1.1611132-6.5 0l-9.320508 5.3811978c-2.011107 1.1611132-3.25 3.3069388-3.25 5.6291652v10.7623958c0 2.322226 1.238893 4.468052 3.25 5.629165l9.320508 5.381198c2.011107 1.161113 4.488893 1.161113 6.5 0l9.320508-5.381198c2.011107-1.161113 3.25-3.306939 3.25-5.629165v-10.7623958c0-2.3222264-1.238893-4.468052-3.25-5.6291652z" stroke="#d67c0e" stroke-width="3"/><path d="m111.25 43.6084392c-2.011107-1.1611132-4.488893-1.1611132-6.5 0l-9.3205081 5.3811978c-2.011107 1.1611132-3.25 3.3069388-3.25 5.6291652v10.7623956c0 2.3222264 1.238893 4.468052 3.25 5.6291652l9.3205081 5.3811978c2.011107 1.1611132 4.488893 1.1611132 6.5 0l9.320508-5.3811978c2.011107-1.1611132 3.25-3.3069388 3.25-5.6291652v-10.7623956c0-2.3222264-1.238893-4.468052-3.25-5.6291652z" stroke="#ffebd3" stroke-width="3"/><path d="m160 42.3094011 9.320508 5.3811978c2.475209 1.4290624 4 4.0700785 4 6.9282033v10.7623956c0 2.8581248-1.524791 5.4991409-4 6.9282033l-9.320508 5.3811978c-2.475209 1.4290624-5.524791 1.4290624-8 0l-9.320508-5.3811978c-2.475209-1.4290624-4-4.0700785-4-6.9282033v-10.7623956c0-2.8581248 1.524791-5.4991409 4-6.9282033l9.320508-5.3811978c2.475209-1.4290624 5.524791-1.4290624 8 0z" fill="#d67c0e"/><path d="m112 122.309401 9.320508 5.381198c2.475209 1.429062 4 4.070078 4 6.928203v10.762396c0 2.858125-1.524791 5.499141-4 6.928203l-9.320508 5.381198c-2.475209 1.429062-5.524791 1.429062-8 0l-9.3205081-5.381198c-2.4752086-1.429062-4-4.070078-4-6.928203v-10.762396c0-2.858125 1.5247914-5.499141 4-6.928203l9.3205081-5.381198c2.475209-1.429062 5.524791-1.429062 8 0z" fill="#004a5d"/><path d="m159.25 123.608439c-2.011107-1.161113-4.488893-1.161113-6.5 0l-9.320508 5.381198c-2.011107 1.161113-3.25 3.306939-3.25 5.629165v10.762396c0 2.322226 1.238893 4.468052 3.25 5.629165l9.320508 5.381198c2.011107 1.161113 4.488893 1.161113 6.5 0l9.320508-5.381198c2.011107-1.161113 3.25-3.306939 3.25-5.629165v-10.762396c0-2.322226-1.238893-4.468052-3.25-5.629165z" stroke="#004a5d" stroke-width="3"/><path d="m0 42.3094011 9.32050808 5.3811978c2.47520862 1.4290624 4.00000002 4.0700785 4.00000002 6.9282033v10.7623956c0 2.8581248-1.5247914 5.4991409-4.00000002 6.9282033l-9.32050808 5.3811978c-2.47520861 1.4290624-5.52479139 1.4290624-8 0l-9.3205081-5.3811978c-2.4752086-1.4290624-4-4.0700785-4-6.9282033v-10.7623956c0-2.8581248 1.5247914-5.4991409 4-6.9282033l9.3205081-5.3811978c2.47520861-1.4290624 5.52479139-1.4290624 8 0z" fill="#d67c0e"/><path d="m-.75 123.608439c-2.011107-1.161113-4.488893-1.161113-6.5 0l-9.3205081 5.381198c-2.011107 1.161113-3.25 3.306939-3.25 5.629165v10.762396c0 2.322226 1.238893 4.468052 3.25 5.629165l9.3205081 5.381198c2.011107 1.161113 4.488893 1.161113 6.5 0l9.32050808-5.381198c2.01110702-1.161113 3.25000002-3.306939 3.25000002-5.629165v-10.762396c0-2.322226-1.238893-4.468052-3.25000002-5.629165z" stroke="#004a5d" stroke-width="3"/></g></svg>