<svg height="1280" viewBox="0 0 1280 1280" width="1280" xmlns="http://www.w3.org/2000/svg" xmlns:xlink="http://www.w3.org/1999/xlink"><radialGradient id="a" cx="50%" cy="50%" r="50%"><stop offset=".001953125" stop-color="#343dbb"/><stop offset="1" stop-color="#007"/></radialGradient><g fill="none" fill-rule="evenodd"><path d="m0 0h1280v1280h-1280z" fill="url(#a)"/><g opacity=".3" transform="translate(71 81)"><path d="m568.809136 1117.23805c-313.471194 0-568.509136-250.528562-568.509136-558.44705 0-307.918487 255.037942-558.4290531 568.509136-558.4290531s568.490864 250.5105661 568.490864 558.4290531c0 307.918488-255.01967 558.44705-568.490864 558.44705m0-1069.232658c-286.74867 0-520.0157489 229.136712-520.0157489 510.785608 0 281.675895 233.2670789 510.80361 520.0157489 510.80361 286.730398 0 519.988344-229.127715 519.988344-510.80361 0-281.648896-233.257946-510.785608-519.988344-510.785608" fill="#fff" opacity=".170954"/><path d="m568.808172 1058.79666c-280.387163 0-508.508172-224.310372-508.508172-500.004718s228.121009-499.9885975 508.508172-499.9885975 508.491828 224.2942515 508.491828 499.9885975-228.104665 500.004718-508.491828 500.004718m0-957.33583c-256.484959 0-465.13282 205.157204-465.13282 457.331112 0 252.198081 208.647861 457.347228 465.13282 457.347228 256.468615 0 465.108308-205.149147 465.108308-457.347228 0-252.173908-208.639693-457.331112-465.108308-457.331112" fill="#343dbb"/><path d="m568.807207 1000.37336c-247.303132 0-448.507207-198.100291-448.507207-441.580476 0-243.480186 201.204075-441.566243 448.507207-441.566243 247.303133 0 448.492793 198.086057 448.492793 441.566243 0 243.480185-201.18966 441.580476-448.492793 441.580476m0-845.473649c-226.221246 0-410.249891 181.185124-410.249891 403.893173 0 222.729397 184.028645 403.907405 410.249891 403.907405 226.206832 0 410.22827-181.178008 410.22827-403.907405 0-222.708049-184.021438-403.893173-410.22827-403.893173" fill="#fff" opacity=".850538"/><path d="m568.806243 941.978082c-214.219101 0-388.506243-171.902782-388.506243-383.184257s174.287142-383.171907 388.506243-383.171907 388.493757 171.890432 388.493757 383.171907-174.274656 383.184257-388.493757 383.184257m0-733.665119c-195.957534 0-355.366963 157.22454-355.366963 350.480862 0 193.274847 159.409429 350.493212 355.366963 350.493212 195.945048 0 355.348233-157.218365 355.348233-350.493212 0-193.256322-159.403185-350.480862-355.348233-350.480862" fill="#fff" opacity=".470663"/><path d="m568.805279 883.629609c-181.13507 0-328.505279-145.726272-328.505279-324.834844 0-179.108571 147.370209-324.824374 328.505279-324.824374s328.494721 145.715803 328.494721 324.824374c0 179.108572-147.359651 324.834844-328.494721 324.834844m0-621.946204c-165.693823 0-300.484034 133.283161-300.484034 297.11136 0 163.843904 134.790211 297.12183 300.484034 297.12183 165.683265 0 300.468197-133.277926 300.468197-297.12183 0-163.828199-134.784932-297.11136-300.468197-297.11136" fill="#f5626c" opacity=".966658"/><path d="m568.804315 825.368345c-148.051039 0-268.504315-119.588886-268.504315-266.572641 0-146.983754 120.453276-266.564049 268.504315-266.564049s268.495685 119.580295 268.495685 266.564049c0 146.983755-120.444646 266.572641-268.495685 266.572641m0-510.394268c-135.430111 0-245.601106 109.377565-245.601106 243.821627 0 134.45695 110.170995 243.830219 245.601106 243.830219 135.421481 0 245.588161-109.373269 245.588161-243.830219 0-134.444062-110.16668-243.821627-245.588161-243.821627" fill="#fff" opacity=".24302"/><path d="m568.803351 766.879637c-114.967008 0-208.503351-93.349464-208.503351-208.08299 0-114.733527 93.536343-208.076284 208.503351-208.076284s208.496649 93.342757 208.496649 208.076284c0 114.733526-93.529641 208.08299-208.496649 208.08299m0-398.406847c-105.166399 0-190.718177 85.378644-190.718177 190.323857 0 104.955272 85.551778 190.330563 190.718177 190.330563 105.159697 0 190.708125-85.375291 190.708125-190.330563 0-104.945213-85.548428-190.323857-190.708125-190.323857" fill="#a07dff"/><path d="m568.802391 707.6c-82.048397 0-148.802391-66.755212-148.802391-148.802398s66.753994-148.797602 148.802391-148.797602 148.797609 66.750416 148.797609 148.797602-66.749212 148.802398-148.797609 148.802398m0-284.905047c-75.054005 0-136.109663 61.055192-136.109663 136.102649 0 75.054651 61.055658 136.107445 136.109663 136.107445 75.049223 0 136.10249-61.052794 136.10249-136.107445 0-75.047457-61.053267-136.102649-136.10249-136.102649" fill="#fff" opacity=".109828"/></g></g></svg>