<svg height="90" viewBox="0 0 288 90" width="288" xmlns="http://www.w3.org/2000/svg"><path d="m124.560717 0c24.614519 0 44.639283 20.1866177 44.639283 44.9992748s-20.024764 45.0007252-44.639283 45.0007252c-24.6145187 0-44.640717-20.1880681-44.640717-45.0007252s20.0261983-44.9992748 44.640717-44.9992748zm158.412317 78.3870968c2.435659 0 4.306966 1.9268361 4.306966 4.3286529 0 2.4541884-1.871307 4.3810245-4.306966 4.3810245-2.410294 0-4.333034-1.9268361-4.333034-4.3810245 0-2.4018168 1.92274-4.3286529 4.333034-4.3286529zm0 .8706768c-1.872011 0-3.256469 1.5573258-3.256469 3.4579761 0 1.9268361 1.384458 3.4572488 3.281833 3.4572488 1.845944 0 3.205037-1.5304127 3.205037-3.431063 0-1.9268361-1.359093-3.4841619-3.230401-3.4841619zm-158.412317-75.41857422c-22.516201 0-40.8328985 18.46427192-40.8328985 41.16007542 0 22.6979791 18.3166975 41.1615258 40.8328985 41.1615258 22.514767 0 40.830747-18.4635467 40.830747-41.1615258 0-22.6958035-18.31598-41.16007542-40.830747-41.16007542zm158.386249 76.68567442c.794742 0 1.154066.1323836 1.461254.3171387.231095.1847552.410757.5273523.410757.9499615 0 .4749807-.359324.844491-.872243 1.0030604v.0523715c.410758.1585694.641148.4749808.769378 1.0561594.12823.6597358.205026.9237757.307892 1.0816177h-1.051201c-.12823-.157842-.205027-.5542655-.333256-1.055432-.076797-.4749807-.333257-.6859216-.871539-.6859216h-.461486v1.7413536h-.974404v-4.3279256c.384689-.0800121.922971-.1323836 1.614848-.1323836zm-214.9165739-71.81519638c2.6974791 0 4.8964167 1.06330168 6.0331494 2.91648458 1.1367328 1.8546296 1.0846356 4.2900968-.1447145 6.6836106l-31.4848203 61.3112766c-1.7192088 3.3446986-3.9868858 3.8466927-5.1938051 3.8466927h-.0115772c-1.2025778-.0028933-3.4774905-.5092274-5.183675-3.8712861l-31.1013268-61.2780032c-1.21632576-2.3985771-1.25901655-4.8362143-.11504806-6.6908439 1.14324492-1.8546296 3.34507674-2.91793128 6.04110874-2.91793128zm213.1188639 0c2.697437 0 4.89634 1.06330168 6.033055 2.91648458 1.138163 1.8539063 1.086066 4.2900968-.143265 6.6828872l-31.485779 61.312c-1.718459 3.3446986-3.986824 3.8466927-5.193725 3.8466927h-.009406c-1.204006-.0028933-3.47816-.5092274-5.185765-3.8712861l-13.440371-26.4814558-13.610222 26.5047515c-1.717697 3.3445691-3.986736 3.8479904-5.192163 3.8479904h-.010853c-1.202533-.0028932-3.478083-.509931-5.185651-3.8725829l-31.100882-61.2770783c-1.217004-2.397761-1.259693-4.8360271-.115767-6.6905849 1.143202-1.85455786 3.345674-2.91781838 6.041605-2.91781838zm1.720913 72.52803118c-.256459 0-.436122.0261858-.538283.0523715v1.2409145h.461486c.538283 0 .974404-.1847552.974404-.6335501 0-.3956961-.282528-.6597359-.897607-.6597359zm-69.371169-68.7001043-30.948933-.000189c-1.331324 0-2.341393.3992652-2.770456 1.0943627-.429062.6958208-.33066 1.7742708.270606 2.9576002l31.101606 61.2770784c.663491 1.3077381 1.366777 1.7728241 1.768345 1.7742708h.001447c.400121 0 1.104854-.4629162 1.774134-1.7641446l14.884251-28.9865828-15.51575-30.5715474c-1.026807-2.0236768-1.217686-4.0751576-.56525-5.7808483zm-145.4686079-.0007642h-61.16070882c-1.3320974 0-2.34075779.3992806-2.76983642 1.0951284-.4298022.6958478-.33067274 1.7736161.27061621 2.9577147l31.10132673 61.2780032c.6635162 1.3070654 1.3661054 1.7721695 1.7669647 1.7721695h.0014471c.4015829 0 1.1063427-.4607641 1.7749239-1.7642128l31.4855439-61.3105533c.6056304-1.1783119.711272-2.2510169.2872584-2.941078s-1.4283326-1.0871717-2.7575357-1.0871717zm213.1188639 0-30.959418-.0000646c.645308 1.7048686.446 3.7537772-.590975 5.7733488l-15.709863 30.5888757 14.702158 28.9686864c.663506 1.3070654 1.366808 1.7721695 1.768384 1.7721695.402301 0 1.106326-.4607641 1.77562-1.7642128l31.48578-61.3105533c.605621-1.1783119.709813-2.2510169.285806-2.941078-.423283-.6900611-1.42831-1.0871717-2.757492-1.0871717zm-37.438607.0005752-23.769649-.0004153-.196582.0044941c-1.209544.0464146-2.122461.4381171-2.524716 1.0904744-.429072.6958478-.329944 1.7736161.271335 2.9577147l14.253963 28.0843168 14.435834-28.1092142c.605608-1.1782663.711245-2.2509298.287247-2.9409642-.423274-.6900343-1.428278-1.0864063-2.757432-1.0864063z" fill="#fff" fill-rule="evenodd"/></svg>