<svg height="80" viewBox="0 0 306 80" width="306" xmlns="http://www.w3.org/2000/svg"><g fill="none" fill-rule="evenodd"><text fill="#fff" font-family="AvenirNextLTPro-Bold, Avenir Next LT Pro" font-size="56" font-weight="bold" letter-spacing="-1.16666667"><tspan x="102" y="63">Chroma</tspan></text><g fill-rule="nonzero"><circle cx="26.293706" cy="53.146853" fill="#64b9e3" r="26.293706"/><circle cx="50.909091" cy="39.72028" fill="#d4007b" r="26.293706"/><circle cx="26.293706" cy="26.293706" fill="#4168ab" r="26.293706"/><path d="m3.63636364 39.7202797c4.59397869 7.7046926 13.02157496 12.8671329 22.65734386 12.8671329 9.635769 0 18.0633652-5.1624403 22.6573415-12.8671329-4.5939733-7.7046907-13.0215708-12.8671328-22.6573415-12.8671328s-18.06336817 5.1624421-22.65734386 12.8671369z" fill="#153f8c"/><path d="m49.2579119 13.4265734c2.1207078 3.8016987 3.3295007 8.1841165 3.3295007 12.8496003 0 14.0035192-10.8901256 25.4568706-24.6425273 26.3112389-2.1207078-3.8016986-3.3295007-8.1841164-3.3295007-12.8496003 0-14.0035192 10.8901256-25.4568706 24.6425273-26.3112389z" fill="#4a237c"/><path d="m27.9448853 26.8531469c13.7524017.8543682 24.6425273 12.3077196 24.6425273 26.3112389 0 4.6654838-1.2087929 9.0479016-3.3295007 12.8496002-13.7524017-.8543683-24.6425273-12.3077197-24.6425273-26.3112389 0-4.6654838 1.2087929-9.0479016 3.3295007-12.8496002z" fill="#851d83"/><path d="m48.951049 39.7202797c-4.32845-7.2892655-12.0606348-12.3120575-20.9999426-12.8671328-2.1246703 3.8068858-3.3357218 8.1952832-3.3357218 12.8671328 0 4.6718497 1.2110515 9.060247 3.3357218 12.8671329 8.9393094-.5550754 16.6714954-5.5778692 20.9999426-12.8671369z" fill="#130c5c"/></g></g></svg>