<svg height="45" viewBox="0 0 198 45" width="198" xmlns="http://www.w3.org/2000/svg"><path d="m21.576 44.064c6.664 0 11.928-2.52 15.4-6.552l-6.664-6.272c-1.68 2.352-4.648 4.032-8.4 4.032-6.608 0-11.256-4.928-11.256-12.152 0-7 4.76-12.152 11.424-12.152 3.024 0 6.216 1.176 8.008 3.64l6.496-6.496c-3.304-3.808-9.296-5.824-14.84-5.824-12.096 0-21.504 8.12-21.504 20.832 0 12.432 9.128 20.944 21.336 20.944zm26.18-1.064v-15.064c0-3.304 1.792-5.936 4.984-5.936 3.304 0 4.088 2.744 4.088 5.88v15.12h9.24v-17.248c0-5.6-2.632-11.424-10.192-11.424-3.864 0-6.776 2.072-8.008 4.312h-.112v-17.976h-9.184v42.336zm31.34 0v-14.336c0-2.296 1.624-6.328 6.552-6.328.728 0 1.512.056 2.352.28l.392-8.064c-.448-.168-1.232-.224-1.96-.224-3.416 0-6.16 2.016-7.56 4.816h-.112v-4.032h-8.848v27.888zm25.94.896c8.456 0 15.512-5.824 15.512-14.952s-7.056-14.728-15.512-14.728c-8.4 0-15.456 5.6-15.456 14.728s7.056 14.952 15.456 14.952zm.056-7.728c-4.312 0-6.608-3.64-6.608-7.224s2.24-7.112 6.552-7.112 6.664 3.528 6.664 7.112-2.296 7.224-6.608 7.224zm27.42 6.832v-15.12c0-3.36 1.68-5.992 4.592-5.992 2.744 0 3.976 2.016 3.976 5.208v15.904h9.184v-15.064c0-3.136 1.512-6.048 4.648-6.048 3.248 0 3.976 2.688 3.976 5.88v15.232h9.184v-17.248c0-5.264-2.576-11.424-10.136-11.424-4.144 0-7.056 1.848-8.904 4.76-1.568-3.024-4.368-4.76-8.4-4.76-4.2 0-7.056 2.296-8.344 4.648h-.112v-3.864h-8.904v27.888zm48.804.672c3.304 0 6.496-1.344 7.896-3.64h.168v2.968h8.4v-14.056c0-10.136-3.472-14.728-12.824-14.728-4.536 0-9.184 1.624-12.432 4.704l4.648 4.984c1.68-1.568 4.256-2.856 6.888-2.856 2.856 0 5.04 1.288 5.04 4.032v.448c-8.12 0-17.92 1.344-17.92 9.408 0 6.552 5.712 8.736 10.136 8.736zm2.296-6.16c-1.848 0-3.976-.728-3.976-2.856 0-3.304 4.536-3.808 8.568-3.808h1.176v.952c0 3.472-2.072 5.712-5.768 5.712z" fill="#fff"/></svg>