<svg height="67" viewBox="0 0 144 67" width="144" xmlns="http://www.w3.org/2000/svg"><g fill="none" fill-rule="evenodd"><path d="m137.236839 51.8007106h-3.544806v-6.7241853h-6.845559v-3.5411444h6.845559v-6.8925122h3.544806v6.8925122h6.763161v3.5411444h-6.763161z" fill="#e92053"/><path d="m10.7165035 45.3446967c3.8409156-.0067741 6.1420382 1.2697382 8.0375804 3.1295747l-2.8453406 3.2936894c-1.5743215-1.4240436-3.1750626-2.2956295-5.2142125-2.2920981-3.43245778.0060163-5.90112263 2.8627357-5.89497549 6.3570572l.00013079.0565014c.00614714 3.4919673 2.42419619 6.3972098 5.9174714 6.3910626 2.3285885-.0040545 3.7531553-.9369809 5.3490572-2.394376l2.8586812 2.8745068c-2.0915967 2.2448828-4.4165231 3.6453842-8.3449373 3.6523343-5.99476841.0105758-10.45445233-4.6084106-10.46480264-10.4582634v-.0568938c-.01018375-5.7903433 4.34617592-10.5420817 10.60134754-10.5530951zm17.9415891-.0315394c6.2860382-.0110974 10.8052317 4.6685757 10.8155812 10.458919v.0562398c.0101845 5.7916512-4.550731 10.5418201-10.836246 10.5529566-6.2842071.0109671-10.8035313-4.6662209-10.8137501-10.4577414v-.0570245c-.0101845-5.7902125 4.550731-10.5423433 10.8344149-10.5533495zm91.9386504.0077103c2.968153 0 5.497112.9322725 7.566082 2.5906921l-2.33055 3.376218c-1.803728-1.2525777-3.578158-2.0063216-5.295041-2.0063216-1.716229 0-2.617504.7839564-2.617504 1.7732534v.0583325c0 1.3392915.872109 1.7750844 4.39455 2.6770136 4.131008 1.0770572 6.45842 2.5596948 6.45842 6.1101253v.0582017c0 4.0459945-3.084818 6.3152043-7.478714 6.3152043-3.084818 0-6.196316-1.076534-8.641439-3.25903l2.646016-3.1703542c1.835772 1.5118038 3.754856 2.4724578 6.081614 2.4724578 1.835117 0 2.938594-.7270627 2.938594-1.9207848v-.0582016c0-1.1349973-.697374-1.7175368-4.101319-2.5901689-4.103804-1.0457984-6.751651-2.181842-6.751651-6.2261363v-.0593787c0-3.6946921 2.969591-6.1411226 7.130942-6.1411226zm-15.575123-.0850618c2.967629-.0052096 5.50182.9223544 7.570659 2.5775043l-2.323357 3.3800109c-1.804643-1.2493079-3.582997-2.0000436-5.299226-1.9969047-1.716883.0030082-2.617897.7886649-2.616196 1.7779619l.000131.0582016c.002354 1.3392916.875901 1.773515 4.400959 2.6691662 4.133493 1.0699946 6.462997 2.5484469 6.469418 6.0988774v.0582017c.00705 4.0461253-3.073713 6.3205667-7.468263 6.3284342-3.084817.0053423-6.1981472-1.0656985-8.6477167-3.2438784l2.6422235-3.1749319c1.8373402 1.5085341 3.7591712 2.4657875 6.0865832 2.461733 1.833417-.0031389 2.936632-.7322943 2.934539-1.9258855v-.0583325c-.002092-1.1349972-.699858-1.7162289-4.107204-2.5829754-4.104458-1.0384742-6.7554441-2.1699401-6.7625068-6.2142344l-.0001308-.0593787c-.0065395-3.6948229 2.9579506-6.1463542 7.1200876-6.1535697zm-44.1336069.3682749.0357057 20.3705722-4.4526213.0079782-.0234114-13.2980927-5.7173624 8.7103651-.1188883.0002616-5.687673-8.6023324.0232807 13.2099401-4.3933733.0078474-.0358366-20.370703 4.8308665-.0085014 5.3690681 8.6046867 5.3393788-8.6235205zm10.4813689-.0183425c4.8574169-.0084826 7.802812 2.8683784 7.8102814 7.0310378v.0588556c.0083562 4.7142016-3.6535075 7.163248-8.2227936 7.171357l-3.4052535.0060163.0107248 6.1102561-4.4799564.0077167-.0358365-20.370703zm17.6044512-.1736837 8.7672589 20.4979618-4.6845123.0082398-1.8712152-4.5647084-8.6146267.0151716-1.9295477 4.6022453-4.4922507-.0228883 8.6932316-20.5286976zm-60.3662256 4.032251c-3.6085013.0064193-6.1068556 2.8631386-6.1007197 6.3574602v.0565013c.0061584 3.4919673 2.5730467 6.3969483 6.1808941 6.3905501 3.6098093-.0064193 6.1063324-2.8613076 6.1001966-6.3551059l-.0001421-.0570246c-.0060163-3.4932752-2.5722507-6.3987792-6.1802289-6.3923811zm58.252787 1.3534275-2.6949319 6.6111825 5.4119673-.0095477zm-15.8632415-1.1663853-3.463455.005897.0109864 6.2291444 3.5502997-.0061471c2.2400436-.0040545 3.5484687-1.3445232 3.5453353-3.0917494v-.0576784c-.0035369-2.0056676-1.4031228-3.0835096-3.6431664-3.0794665zm-25.3431368-27.3097399c3.8392153-.006774 6.141515 1.2697382 8.034703 3.1307519l-2.8441634 3.290158c-1.5749755-1.4228665-3.1762398-2.2897439-5.2117276-2.2860817-3.4344196.0060163-5.9029536 2.8602506-5.8969373 6.3523487l.0001308.0576785c.0061471 3.4926213 2.424327 6.397733 5.9193025 6.3915858 2.3255803-.0041852 3.7513242-.938158 5.348534-2.3963378l2.8592044 2.8752915c-2.0934278 2.2461908-4.4188774 3.6483924-8.3479455 3.6553425-5.9935913.0105758-10.4537984-4.6102417-10.464279-10.4576095v-.0601635c-.0100535-5.7902125 4.3443444-10.5419509 10.6031781-10.5529644zm33.4397036-.058874c6.2843379-.010967 10.8040545 4.6668749 10.8142736 10.4577414v.0576785c.0103149 5.7913896-4.5506006 10.5440436-10.8367695 10.5551805-6.2842071.0110974-10.8035314-4.6673985-10.8137501-10.4570879v-.0600327c-.0101845-5.7903433 4.5494231-10.5423433 10.836246-10.5534798zm29.3224671.2979986.020298 11.4926649c.010831 6.1718583-3.447524 9.2033133-8.9166463 9.212884-5.4687303.0096555-8.8215368-3.0394562-8.8321308-9.0361865l-.0205341-11.6381035 4.4794333-.0079782.0202725 11.5247084c.0058855 3.3173624 1.6692752 5.0305831 4.4051444 5.0257439 2.734038-.0047085 4.391542-1.666267 4.385918-4.8942997l-.020665-11.6715859zm-49.2546698.0866093.028643 16.2967193 10.1562507-.0179182.0071935 4.0741144-14.63503.0256349-.0358365-20.3705722zm59.1360388.0045253c6.402573 0 10.823804 4.3945504 10.823804 10.1277384v.0570246c0 5.7344959-4.421231 10.18594-10.823804 10.18594h-7.943542v-20.370703zm-39.2561522 3.7458074c-3.6078474.0062885-6.1050245 2.8606537-6.0988887 6.352621l.0001421.0576784c.0060164 3.4926213 2.5717275 6.3974714 6.1807521 6.3912037 3.6068011-.0062881 6.1045013-2.8631383 6.0983655-6.3527513l-.0001421-.0600327c-.0060164-3.4907902-2.5722507-6.3951172-6.1802289-6.3887191zm39.2561522.3008411h-3.464109v12.2779292h3.464109c3.664872 0 6.139815-2.4724578 6.139815-6.079782v-.0600327c0-3.6091553-2.474943-6.1381145-6.139815-6.1381145zm7.415948-26.51419288v3.98491553h-10.911826v4.13414714h9.602747v3.98596181h-9.602747v4.2778856h11.05805v3.9872698h-15.508317v-20.37017988zm-36.8834746-.05650137.0071935 4.13231608-6.1974932.01085559.0286431 16.23773298-4.4819183.0079782-.0286431-16.23786377-6.1993242.01098637-.0071935-4.13231607zm19.5465416-.03450245.035706 20.370049-4.478779.0078475-.014257-8.1783107-8.7908007.0154333.0143869 8.1783106-4.4794332.0079782-.0358365-20.37004904 4.4794332-.00784741.0141254 8.05929155 8.7908009-.01543324-.014125-8.05942235z" fill="#fff"/></g></svg>