<svg height="58" viewBox="0 0 192 58" width="192" xmlns="http://www.w3.org/2000/svg"><g fill="none" fill-rule="evenodd"><g fill-rule="nonzero"><circle cx="12.244233" cy="24.748982" fill="#64b9e3" r="12.244233"/><circle cx="23.70692" cy="18.496608" fill="#d4007b" r="12.244233"/><circle cx="12.244233" cy="12.244233" fill="#4168ab" r="12.244233"/><path d="m1.69335142 18.4966079c2.13928561 3.5878568 6.06377818 5.9918589 10.55088258 5.9918589 4.4871043 0 8.4115969-2.4040021 10.5508813-5.9918589-2.139283-3.587856-6.0637762-5.9918589-10.5508813-5.9918589-4.4871052 0-8.41159837 2.4040029-10.55088258 5.9918608z" fill="#153f8c"/><path d="m22.9380127 6.25237449c.9875535 1.77034325 1.5504541 3.81111091 1.5504541 5.98369441 0 6.5210418-5.0712227 11.8545428-11.4753262 12.2523979-.9875535-1.7703433-1.550454-3.811111-1.550454-5.9836945 0-6.5210418 5.0712226-11.85454273 11.4753261-12.25239781z" fill="#4a237c"/><path d="m13.0131406 12.504749c6.4041035.3978551 11.4753262 5.731356 11.4753262 12.2523978 0 2.1725835-.5629006 4.2133512-1.5504541 5.9836944-6.4041035-.397855-11.4753261-5.731356-11.4753261-12.2523978 0-2.1725835.5629005-4.2133512 1.550454-5.9836944z" fill="#851d83"/><path d="m22.7951153 18.4966079c-2.0156364-3.3944043-5.6162956-5.7333761-9.7790777-5.9918589-.9893987 1.7727588-1.553351 3.816311-1.553351 5.9918589s.5639523 4.2191001 1.553351 5.9918589c4.1627829-.2584829 7.7634427-2.5974555 9.7790777-5.9918608z" fill="#130c5c"/></g><path d="m187.212387 45.1947972 4.210581-6.3545418h-5.475097l-1.500903 2.6601128-1.469936-2.6601128h-5.632l4.211613 6.3545418-4.676129 7.0513118h5.605161l1.885936-3.2815284 1.963355 3.2815284h5.630967zm-15.805935-3.4105598c1.317161 0 2.247225 1.0064455 2.247225 2.2472121h-4.88258c.231226-1.4461847 1.109677-2.2472121 2.635355-2.2472121zm6.869677 6.5620244h-4.77729c-.414968.6451574-1.318194.9538006-2.145033.9538006-1.601032 0-2.480516-1.0838643-2.609548-2.6074679h9.816774c0-5.2180326-2.298838-8.1888532-7.620129-8.1888532-4.237419 0-7.078193 3.1762387-7.078193 7.0781503 0 4.4686179 3.229935 6.9996992 7.516903 6.9996992 3.047226 0 5.864258-1.3429596 6.896516-4.235329zm-22.13471.5161259c-1.835354 0-2.247225-1.7310862-2.247225-3.3321087 0-1.5752162.411871-3.3073346 2.247225-3.3073346 1.833291 0 2.247226 1.7321184 2.247226 3.3073346 0 1.6010225-.413935 3.3321087-2.247226 3.3321087zm2.065549-8.5511736h-.050581c-.776258-1.1354769-2.145032-1.8074728-3.667613-1.8074728-4.496516 0-5.709419 3.8224283-5.709419 6.9738929 0 3.3599795 1.83329 7.1039566 5.629935 7.1039566 2.506323 0 3.280516-.9558652 3.92671-1.8085051h.052645v1.4730233h4.933161v-18.4442745h-5.114838zm-14.927484-1.8074728c-2.042839 0-3.410581.6967699-4.368516 2.0407617h-.049549v-1.7042476h-4.934193v13.4058536h5.114839v-7.0781503c0-2.143987 1.163354-2.5826939 2.040774-2.5826939 1.498838 0 1.679484 1.0848966 1.679484 2.6332742v7.02757h5.114838v-9.1952987c0-3.075078-2.195613-4.547069-4.597677-4.547069zm-15.705807-1.1096706h5.115871v-3.5922362h-5.115871zm0 14.8520383h5.115871v-13.4058536h-5.115871zm-4.661677-4.9465505c-.129032.5605127-.344774 1.0601226-.646194 1.4988296-.300387.438707-.683354.7958661-1.147871 1.0714773-.465548.2756112-1.034322.413933-1.707354.413933-.601807 0-1.131355-.1218057-1.587613-.3623204-.456258-.2415469-.848516-.5687707-1.173678-.9806392-.327225-.4149652-.573935-.9094138-.737032-1.4864425-.164129-.5759965-.245677-1.1994765-.245677-1.8714724 0-1.4296687.313806-2.5734037.943484-3.4353339.628645-.860898 1.562838-1.2923792 2.800516-1.2923792.604903 0 1.137548.1341927 1.602064.4005137.464516.2663209.853678.6203833 1.163355 1.0590903.308645.4407715.542968.9424458.697806 1.5112166.153807.5677384.231226 1.1540574.231226 1.7568925 0 .5852867-.064 1.1581864-.193032 1.7166346zm1.587613-6.6889914c-.517161-.6472218-1.165419-1.1540574-1.949936-1.5225713-.782451-.3716106-1.700129-.5563837-2.750967-.5563837-.377807 0-.760775.0464513-1.149936.1414185-.386064.0949672-.756645.2322566-1.109677.4149652-.353032.1796118-.676129.3994814-.967226.6565121-.293161.258063-.542968.5522547-.750452.8805108h-.051613v-6.8190551h-2.942967v18.4401454h2.788129v-1.8343114h.051613c.222967.4479972.504774.8103176.84129 1.0848966.333419.2766435.709161.5016743 1.122064.6730281.413936.1713538.846452.286966 1.304775.3478689.456258.0598706.907355.0898059 1.356387.0898059.980645 0 1.831226-.1930311 2.556903-.5801255.722581-.3881267 1.32129-.9042526 1.795097-1.5504422.471742-.6461896.824774-1.3904431 1.058064-2.2337928.233291-.8433496.348904-1.7125056.348904-2.6074679 0-.9827037-.129033-1.9045045-.38813-2.7654025-.258064-.8619302-.644129-1.6144417-1.162322-2.2595991zm-22.392774 3.7832027c.016516-.4985776.115613-.9620586.296258-1.3935398.180645-.430449.422193-.8061887.723613-1.1241222.300387-.3179335.662709-.5687707 1.084903-.7494148.421161-.180644.890839-.2714822 1.408-.2714822.499613 0 .95071.1001284 1.356387.299353.403613.1961279.747355.4541908 1.03329.7741888.283871.3169013.505807.692641.669936 1.1220577.164129.430449.264258.8784462.296258 1.3429595zm8.421161-3.4601079c-.552258-.7225762-1.245935-1.3057984-2.08-1.7434732-.836129-.4397392-1.778581-.6585766-2.828387-.6585766-.999226 0-1.894194.1899343-2.685936.5677385-.791742.3788364-1.469935.8908332-2.027354 1.5370228-.561549.6461896-.9909682 1.3945722-1.2913553 2.2472121-.3024516.85264-.452129 1.7527635-.452129 2.6993384 0 1.033284.1414194 1.9798588.4252903 2.8407568.2849033.860898.706065 1.5999902 1.267613 2.2203735.558452.6203833 1.242839 1.1024449 2.052129 1.4461847.808258.3458044 1.738323.5171582 2.787097.5171582.725677 0 1.41729-.1001284 2.081032-.2972885.663742-.1981924 1.262452-.4903196 1.795097-.877414.533677-.3870944.988903-.865027 1.368774-1.4337977.379871-.5677385.645161-1.2139281.801032-1.9365043h-2.790193c-.258065.7411567-.648258 1.2954759-1.17471 1.6650221-.525419.3705783-1.219097.5563837-2.081032.5563837-.617291 0-1.152-.1083865-1.598968-.3230948-.449032-.2147084-.817548-.5047711-1.111742-.8660593-.292129-.3602558-.513032-.7824468-.656516-1.2645084-.148645-.4820615-.220903-.9827036-.220903-1.4988295h9.814709c.119742-.9992197.055742-1.9674719-.193032-2.906821-.250839-.9362523-.651355-1.7682472-1.200516-2.4908235zm-13.6629677-2.0407617-2.7138065 9.9694875h-.0526452l-2.4010322-9.9694875h-2.9698065l-2.5052903 9.9694875h-.0516129l-2.6095484-9.9694875h-3.1256774l4.1331613 13.3532088h3.099871l2.4526451-9.9189072h.0536774l2.4784517 9.9189072h3.0224516l4.1847742-13.3532088zm-18.5207742 13.3532088h.9816774v-18.4442745h-.9816774zm-3.4343226-5.0621627c0 .6957377-.4913549 4.518166-4.96 4.518166-2.3236129 0-3.4869678-1.291347-3.4869678-2.8923694 0-1.9870847 1.3171613-2.8139183 3.6428388-3.075078 1.9107096-.2570307 4.0299354-.1527733 4.804129-1.0312195zm.9816774 2.6085002v-7.6727273c0-2.7385639-2.3256774-3.4601079-4.6492903-3.4601079-3.1246452 0-4.9341936 1.4709588-5.0632258 4.391199h.9816774c.1290323-2.2998569 1.7042581-3.5395913 4.0815484-3.5395913 3.0224516 0 3.6934193 2.0139232 3.6934193 2.6085002 0 2.1697932-.1806451 2.4536624-4.5729032 2.7643702-2.1945806.1816763-4.8815484.8258014-4.8815484 3.9256535 0 2.7912087 1.9365162 3.7460416 4.4428387 3.7460416 2.5321291 0 4.3148387-1.3687658 4.9341936-2.9450143h.0516129v.6978022c0 1.0859289.2332903 1.9375366 1.7827097 1.9375366.2590967 0 .5171613-.0516126.8020645-.102193v-.8288981c-.3107097.0526448-.5429678.0794834-.7246452.0794834-.8784516 0-.8784516-.8268337-.8784516-1.6020548zm-16.9434839 1.9096658c-3.6170322 0-5.0621935-3.1504324-5.0621935-6.4051222 0-3.3331409 1.6010322-5.7857711 5.0621935-5.7857711 3.1772904 0 4.7783226 2.8417891 4.7783226 5.7857711 0 3.0492717-1.2913548 6.4051222-4.7783226 6.4051222zm0-13.042501c-2.1450322 0-4.2890322 1.0570258-5.0374193 3.1246261h-.0516129v-7.9824029h-.9816774v18.4442745h.9816774v-2.9708206h.0516129c.2074838.6978022 1.5494193 3.2804961 5.0374193 3.2804961 1.8343226 0 5.76-.9300589 5.76-7.2587944 0-3.6933968-1.8590967-6.6373788-5.76-6.6373788zm-13.2758709 13.042501c-3.3331613 0-5.1138065-2.9181757-5.1138065-6.0944144 0-3.1772709 1.7806452-6.0964789 5.1138065-6.0964789 3.332129 0 5.1148387 2.919208 5.1148387 6.0964789 0 3.1762387-1.7827097 6.0944144-5.1148387 6.0944144zm0-13.042501c-3.9009033 0-6.0965162 3.1762387-6.0965162 6.9480866 0 3.7708157 2.1956129 6.9480866 6.0965162 6.9480866 3.8998709 0 6.0965161-3.1772709 6.0965161-6.9480866 0-3.7718479-2.1966452-6.9480866-6.0965161-6.9480866zm-8.1620646 13.5864977h.9806452v-18.4442745h-.9806452zm-7.5406451-1.3429596c-3.1267097 0-4.7545807-2.5826939-4.7545807-5.7083522 0-2.8170151 1.5494194-5.6835782 4.7545807-5.6835782 3.2536774 0 4.8299355 2.7117254 4.8299355 5.6835782 0 2.9955946-1.6010323 5.7083522-4.8299355 5.7083522zm4.8557419-9.1715569h-.0526451c-.7225807-1.9881168-2.7375484-3.0719812-4.8030968-3.0719812-3.7470968 0-5.7352258 3.0203687-5.7352258 6.5351859 0 3.6933968 1.8343226 6.5609922 5.7352258 6.5609922 2.2461935 0 3.8740645-1.0590903 4.8030968-3.0214009h.0526451v3.0472072c0 .8784462-.0784516 4.6750682-4.7277419 4.6750682-2.1698065 0-4.0289032-.9290266-4.2363871-3.2804961h-.9816774c.1558709 3.075078 2.3504516 4.1321038 5.1932903 4.1321038 5.7341935.1827085 5.7341935-4.7266808 5.7341935-5.7609971v-12.5790199h-.9816774z" fill="#fff"/></g></svg>