<svg height="58" viewBox="0 0 192 58" width="192" xmlns="http://www.w3.org/2000/svg"><path d="m34.2657471 116.306019c4.5888942-.966123 9.1159345 1.948818 10.0922238 6.501031.9746176 4.548899-1.9642808 9.041455-6.5515032 10.007578-4.5939094.967781-9.1226214-1.950475-10.097239-6.499374-.9762893-4.553871 1.962609-9.041455 6.5565184-10.009235zm5.4214149 7.485383c-.4279624-1.996875-2.4173191-3.274544-4.4284083-2.850312-2.0144326.424233-3.3033351 2.391279-2.8753727 4.389812.4279625 1.996876 2.412304 3.274545 4.4284083 2.850312 2.0110892-.424232 3.3050069-2.391279 2.8753727-4.389812zm1.5266223-48.3333375c11.0785435-2.3349358 22.1855064 4.4875843 24.7616397 15.2060833 1.2989329 5.4073071.3594216 10.9786732-2.639659 15.6866592-2.9990806 4.711301-7.6682178 7.942759-13.1498149 9.10277l-3.0274999.638006c-1.5396618.323145-3.0926974-.011601-4.3632109-.946238-1.058204-.778864-1.8054666-1.967046-2.1030342-3.357402l-1.3457413-6.270687-4.6891979.987667c-3.913516.823607-7.7668497-1.660473-8.596027-5.533251l-1.7636733-8.2195049c-1.5530356-7.2450955 3.1278036-14.3891043 10.4315846-15.9269471zm45.43139 9.3051088c2.811847 0 4.9148812.9445802 6.3074309 2.8370548 1.3925497 1.8941317 2.0896604 4.4892414 2.0896604 7.7869862 0 1.5859003-.2006074 3.0309422-.6001505 4.3334685-.4012148 1.3058402-.9813045 2.4244222-1.7419409 3.3574022s-1.6834304 1.655501-2.7667103 2.167563c-1.08328.512062-2.3086568.765607-3.6761306.765607-1.0047087 0-2.006074-.178973-2.9990806-.535262-.9930066-.357946-1.9275027-1.073838-2.8051601-2.149334v9.513745h-5.4163997v-27.4640822h5.2626007v2.6464816c1.5463487-2.1741915 3.6627567-3.2596301 6.3458807-3.2596301zm61.9502387 0c2.810175 0 4.91321.9445802 6.307431 2.8370548 1.39255 1.8941317 2.08966 4.4892414 2.08966 7.7869862 0 1.5859003-.200607 3.0309422-.60015 4.3334685-.401215 1.3058402-.981305 2.4244222-1.741941 3.3574022s-1.68343 1.655501-2.76671 2.167563-2.310329.765607-3.676131.765607c-1.00638 0-2.006074-.178973-2.99908-.535262-.993007-.357946-1.929175-1.073838-2.80516-2.149334v9.513745h-5.418072v-27.4640822h5.262601v2.6464816c1.54802-2.1741915 3.664428-3.2596301 6.347552-3.2596301zm-87.2406461 7.1123571c-1.9325179-8.3139625-10.3597003-13.6350973-18.778524-11.8619381l-6.8540861 1.4450419c-4.7259759.9959521-7.7551476 5.6194233-6.7487672 10.3091809l1.7620017 8.2178473c.2825221 1.3190976 1.5931571 2.1659056 2.9271962 1.8841886l4.6908697-.987666-1.329024-6.1961144c-.6837369-3.1834008 1.3758324-6.3253726 4.5872224-7.0014932l2.4290213-.5120618c4.5939094-.9677804 9.1059041 1.7002442 10.2727704 6.0751418.6101808 2.2669923.2591179 4.6201569-.977961 6.6236611-1.2454376 2.0001895-3.2013598 3.3723165-5.51336 3.8595215l-3.7998384.800407 1.3775041 6.429774c.036778.172344.1320665.311546.2791786.407661.1487838.091144.3159567.124287.4848012.087829l2.701513-.568405c4.2428464-.899837 8.0242958-3.508204 10.3730741-7.167209 2.3036416-3.591062 3.0592628-7.7936149 2.116408-11.8453666zm45.3723781-7.11302c1.573096 0 2.992394.2436023 4.25622.7274925 1.263827.4872045 2.34042 1.1832109 3.231451 2.0913336.889359.9081226 1.566409 2.0200758 2.03115 3.3375165.46474 1.3174407.697111 2.7939687.697111 4.4295838 0 1.6637867-.239058 3.1519148-.7155 4.4693555-.479786 1.3174407-1.161851 2.4360227-2.051211 3.3557457-.891031.92138-1.967624 1.624015-3.231451 2.109562-1.263826.485547-2.66975.72915-4.21777.72915-3.24984 0-5.765791-.919723-7.5461817-2.760826-1.7803906-1.84276-2.6697501-4.474327-2.6697501-7.9029872 0-1.6356151.2390572-3.1121431.7154997-4.4295838.4781143-1.3174407 1.1618512-2.4293939 2.0512107-3.3375165.8910314-.9081227 1.9676244-1.6041291 3.2314504-2.0913336 1.263827-.4838902 2.66975-.7274925 4.217771-.7274925zm80.871027.0006629c1.599844 0 2.94057.1590872 4.025522.4789187 1.081608.3198315 1.965952.7473783 2.649689 1.2842976.683737.5369192 1.200301 1.1765823 1.54802 1.917332.34772.744064.600151 1.5361856.75395 2.3780219l-4.83631.6148057c-.23237-.9213799-.6386-1.5975005-1.21869-2.0333331-.58009-.4341754-1.516258-.6529203-2.80516-.6529203-.723858 0-1.322337.0596577-1.800451.1740016-.476443.114344-.85091.2634882-1.12173.4408041-.27082.1789731-.464741.3828035-.58009.6148057-.117021.2286878-.175531.4474327-.175531.6512631 0 .6396631.200607 1.1069817.60015 1.4002987.401215.293317 1.18024.5435479 2.342091.7473783l2.554401.4209182c1.417626.2320021 2.591179.5253191 3.52066.8832653.927809.3579461 1.668385.8004074 2.225071 1.3224122.555013.5253191.941183 1.1450963 1.160179 1.8609886s.32933 1.5477857.32933 2.494023c0 1.8924744-.723858 3.4071174-2.166559 4.5455844-1.446045 1.136811-3.676131 1.705216-6.695272 1.705216-1.212003 0-2.367168-.107715-3.46215-.324803-1.096653-.217088-2.077958-.59492-2.942241-1.131839-.864284-.536919-1.573097-1.252811-2.128111-2.147677-.555013-.894865-.869298-2.020076-.94787-3.375631h5.185702c.180546 1.176582.658661 1.943847 1.430999 2.301793.77401.357946 1.703491.536919 2.786771.536919 1.288903 0 2.211697-.159087 2.766711-.480576.555013-.319831.83252-.836865.83252-1.5527571 0-.5104047-.175531-.9594946-.523251-1.3422981-.347719-.3828035-1.013067-.6529203-1.9927-.8053789l-2.786771-.4606899c-2.449082-.3828036-4.274609-1.0406954-5.47491-1.9753326-1.198629-.93298-1.79878-2.3448787-1.79878-4.2373534 0-.9727518.21231-1.8427598.6386-2.6100241.426291-.7672642 1.02477-1.4185273 1.79878-1.9554466.77401-.5369192 1.695133-.9528659 2.76671-1.2461829 1.069907-.293317 2.250147-.4408041 3.540721-.4408041zm19.230727 0c1.599844 0 2.942241.1590872 4.025521.4789187s1.965953.7473783 2.64969 1.2842976c.683737.5369192 1.200301 1.1765823 1.54802 1.917332.34772.744064.600151 1.5361856.75395 2.3780219l-4.83631.6148057c-.232371-.9213799-.638601-1.5975005-1.21869-2.0333331-.58009-.4341754-1.516258-.6529203-2.805161-.6529203-.723858 0-1.322337.0596577-1.800451.1740016-.476442.114344-.85091.2634882-1.12173.4408041-.27082.1789731-.46474.3828035-.580089.6148057-.11535.2286878-.17386.4474327-.17386.6512631 0 .6396631.198936 1.1069817.60015 1.4002987.399543.293317 1.178569.5435479 2.34042.7473783l2.554401.4209182c1.417625.2320021 2.591179.5253191 3.52066.8832653.929481.3579461 1.670056.8004074 2.22507 1.3224122.555014.5253191.941183 1.1450963 1.16018 1.8609886.218996.7158923.32933 1.5477857.32933 2.494023 0 1.8924744-.722187 3.4071174-2.16656 4.5455844-1.446045 1.136811-3.67613 1.705216-6.695272 1.705216-1.212003 0-2.365495-.107715-3.462149-.324803s-2.077958-.59492-2.94057-1.131839c-.864284-.536919-1.574768-1.252811-2.12811-2.147677-.555014-.894865-.870971-2.020076-.949542-3.375631h5.185701c.180547 1.176582.658661 1.943847 1.431 2.301793.77401.357946 1.703491.536919 2.786771.536919 1.288902 0 2.211696-.159087 2.76671-.480576.555014-.319831.832521-.836865.832521-1.5527571 0-.5104047-.17386-.9594946-.523251-1.3422981-.34772-.3828035-1.013068-.6529203-1.9927-.8053789l-2.7851-.4606899c-2.450753-.3828036-4.276281-1.0406954-5.476582-1.9753326-1.198629-.93298-1.798779-2.3448787-1.798779-4.2373534 0-.9727518.212309-1.8427598.6386-2.6100241.426291-.7672642 1.024769-1.4185273 1.79878-1.9554466.77401-.5369192 1.696804-.9528659 2.768382-1.2461829 1.068234-.293317 2.250146-.4408041 3.539049-.4408041zm-38.616089-.0013257c1.548021 0 2.863671.1856017 3.946951.5568051s1.95425.9014941 2.61124 1.5908719c.658661.6910349 1.135103 1.5295569 1.430999 2.5122517.297568.9860091.446352 2.0913336.446352 3.3192878v12.6573739h-5.108802v-2.53048c-.799086.894865-1.695133 1.624015-2.689811 2.185791-.991335.561777-2.275222.843494-3.848319.843494-.904405 0-1.762001-.114344-2.572789-.344689-.814132-.230345-1.522945-.588291-2.129782-1.075496-.606838-.485547-1.089967-1.105324-1.45106-1.859331-.361094-.754007-.54164-1.655501-.54164-2.7044824 0-1.3804127.309269-2.5056231.92948-3.3756311.61854-.8683509 1.431-1.5461286 2.43738-2.031676 1.006381-.4855473 2.134797-.8318933 3.38525-1.0357238 1.252125-.2054876 2.522638-.3330888 3.811541-.3844607l2.59285-.1143439v-.9976092c0-1.2279542-.342704-2.0714477-1.024769-2.5321377-.683737-.4606899-1.48951-.6910349-2.418991-.6910349-2.141484 0-3.366861.8053788-3.676131 2.4177937l-4.953331-.4606899c.361094-2.0963051 1.290575-3.6109477 2.786772-4.5455849 1.496196-.93298 3.507286-1.4002986 6.03661-1.4002986zm-43.26182-6.7507652v27.3878526h-5.4164v-27.3878526zm8.74481 0v27.3878526h-5.416399v-27.3878526zm37.728401 18.4503018-2.398931.1143439c-1.135103.053029-2.05121.167373-2.748321.346346-.695439.1789731-1.230392.4026895-1.604859.6711491s-.626898.5816625-.75395.9396087c-.130394.3579461-.19392.7540069-.19392 1.1881824 0 .6661777.23237 1.1898397.697111 1.5743007.463068.382803 1.108356.575033 1.934189.575033 1.39255 0 2.527654-.319831 3.405311-.959494.489816-.357946.889359-.812008 1.198629-1.3621842.30927-.5485193.464741-1.2329256.464741-2.0515618zm-64.697056-7.4035198c-1.548021 0-2.703185.5369192-3.463821 1.6107577-.760637 1.0738385-1.140119 2.6348815-1.140119 4.6798147 0 2.0714477.372796 3.6507194 1.12173 4.7378152.747262 1.087096 1.909114 1.630644 3.48221 1.630644 1.54802 0 2.701513-.550177 3.463821-1.65053.758965-1.0986958 1.140119-2.6713389 1.140119-4.7179292 0-2.0449332-.381154-3.6059762-1.140119-4.6798147-.762308-1.0738385-1.915801-1.6107577-3.463821-1.6107577zm-21.6299911.0768921c-.6720348 0-1.2521245.0894866-1.7419409.2684596-.4898164.1789731-.966259.46069-1.4309995.8434936-.516564.4872044-.8960463 1.100353-1.1417904 1.8427598-.2457441.7407497-.3677802 1.686987-.3677802 2.8370548v.6148057c0 1.3041834.1086623 2.3465359.3293305 3.1254003.2189964.7805214.5734028 1.4135557 1.0632192 1.8991037.516564.460689 1.039815.760635 1.5680811.901494.5282662.140858 1.0632192.210459 1.6048592.210459.5934635 0 1.1618512-.114344 1.7034911-.344689.54164-.230345 1.0113957-.59492 1.4126104-1.093725.3978714-.4988043.7154998-1.1434388.94787-1.9372175.2323702-.7921216.3477195-1.7516162.3477195-2.8768266 0-1.1749251-.1103341-2.1609342-.3293305-2.9530558s-.5215792-1.4384133-.9094202-1.9372179c-.3861692-.4988046-.8442228-.8567508-1.3724889-1.0738385-.5299379-.2170877-1.0899669-.3264602-1.6834304-.3264602zm61.9502391 0c-.672035 0-1.252125.0894866-1.741941.2684596-.489817.1789731-.967931.46069-1.432671.8434936-.514893.4872044-.896047 1.100353-1.140119 1.8427598-.245744.7407497-.36778 1.686987-.36778 2.8370548v.6148057c0 1.3041834.108662 2.3465359.32933 3.1254003.218997.7805214.573403 1.4135557 1.063219 1.8991037.516564.460689 1.038144.760635 1.568082.901494.526594.140858 1.063219.210459 1.604859.210459.593463 0 1.161851-.114344 1.703491-.344689s1.011396-.59492 1.41261-1.093725c.397872-.4988043.7155-1.1434388.94787-1.9372175.230699-.7921216.34772-1.7516162.34772-2.8768266 0-1.1749251-.110334-2.1609342-.329331-2.9530558-.218996-.7921216-.521579-1.4384133-.90942-1.9372179-.386169-.4988046-.844223-.8567508-1.372489-1.0738385-.529938-.2170877-1.091638-.3264602-1.68343-.3264602zm-98.8424409 3.2180355c-.867627-.6032056-1.9174724-.8103504-2.9489288-.5932627l-2.5276532.533605c-.7004541.147487-1.1518208.8368648-1.0030369 1.5295569l1.3022763 6.0751418 3.642696-.7672642c2.0294782-.4275468 3.3952802-2.2852211 3.1177733-4.2290676-.1521273-1.0390382-.7121563-1.948818-1.5831267-2.5487092z" fill="#fff" fill-rule="evenodd" transform="translate(-24 -75)"/></svg>