<svg height="40" viewBox="0 0 182 40" width="182" xmlns="http://www.w3.org/2000/svg"><g fill="none"><path d="m7.44 16.7776c0-2.168 2.1792-3.8272 5.7056-3.8272 3.912 0 7.312 1.6592 9.1712 3.7008l2.8208-4.72c-2.7568-2.4256-6.7328-4.2768-11.992-4.2768-7.824 0-12.1824 4.2752-12.1824 9.3152 0 11.8656 18.7232 7.528 18.7232 13.5888 0 2.424-2.1152 4.0832-6.1552 4.0832-3.976 0-8.272-2.0416-10.4528-4.2752l-3.0784 4.7856c3.2064 3.128 7.952 4.848 13.2752 4.848 8.336 0 12.8896-4.1472 12.8896-9.632 0-12.2496-18.7248-8.1664-18.7248-13.5904zm36.0224 17.2896c-5.5776 0-9.36-4.2736-9.36-10.272 0-5.9968 3.7824-10.208 9.36-10.208 3.0144 0 5.3872 1.1504 7.12 3.5728l4.424-4.0176c-2.1808-2.936-5.7712-5.488-11.864-5.488-9.3616 0-15.968 6.8272-15.968 16.1408 0 9.3152 6.6064 16.2048 15.968 16.2048 6.0928 0 9.6832-2.616 11.864-5.4864l-4.4256-4.1472c-1.7312 2.4256-4.104 3.7008-7.1184 3.7008zm26.912-26.4128c-9.8736 0-15.9024 7.2736-15.9024 16.1408 0 8.8048 6.0288 16.2048 15.904 16.2048s15.904-7.4 15.904-16.2048c0-8.8672-6.0288-16.1408-15.904-16.1408zm0 26.4128c-5.7056 0-8.912-4.784-8.912-10.272 0-5.4224 3.2064-10.208 8.912-10.208 5.7728 0 8.9136 4.7856 8.9136 10.208 0 5.488-3.1408 10.272-8.912 10.272zm33.16-26.4128c-9.8752 0-15.9024 7.2736-15.9024 16.1408 0 8.8048 6.0272 16.2048 15.9024 16.2048 9.8768 0 15.904-7.4 15.904-16.2048 0-8.8672-6.0272-16.1408-15.904-16.1408zm0 26.4128c-5.7056 0-8.912-4.784-8.912-10.272 0-5.4224 3.2064-10.208 8.912-10.208 5.7728 0 8.9136 4.7856 8.9136 10.208 0 5.488-3.1408 10.272-8.9136 10.272zm30.0352 0c-1.9232 0-2.9488-1.5952-2.9488-3.7008v-16.1408h6.2848v-5.8048h-6.2848v-8.4208h-6.7328v8.4208h-5.1296v5.8048h5.1296v17.8c0 5.168 2.6928 7.9744 7.952 7.9744 3.0768 0 5.0656-.8928 6.2832-1.9776l-1.6032-5.104c-.512.5744-1.6672 1.1488-2.9504 1.1488zm29.0512-25.6464v1.7024c-2.4304-1.5616-5.4336-2.4688-8.9168-2.4688-9.8752 0-15.904 7.2736-15.904 16.1408 0 8.8048 6.0288 16.2048 15.904 16.2048 3.4832 0 6.4864-.9232 8.9168-2.5024v1.7376h6.472v-30.8144zm-8.9168 25.6464c-5.7072 0-8.9136-4.784-8.9136-10.272 0-5.4224 3.2064-10.208 8.912-10.208 5.7728 0 8.9152 4.7856 8.9152 10.208 0 5.488-3.1424 10.272-8.9136 10.272z" fill="#fcfcfc"/><path d="m172.728 35.3888c0-2.4032 2.0768-4.48 4.544-4.48 2.4688 0 4.5456 2.0768 4.5456 4.48 0 2.4688-2.0768 4.6112-4.544 4.6112-2.4688 0-4.5456-2.144-4.5456-4.6112" fill="#20d8e5"/></g></svg>