<svg height="181" viewBox="0 0 1092 181" width="1092" xmlns="http://www.w3.org/2000/svg"><g fill="none" fill-rule="evenodd"><g fill-rule="nonzero" transform="translate(226.12 28.3)"><path d="m50.49 122.4c13.1466667 0 23.63-3.173333 31.45-9.52 8.16-6.686667 12.24-15.81 12.24-27.37 0-9.9733333-3.2866667-17.85-9.86-23.63-5.6666667-4.8733333-14.96-9.01-27.88-12.41-10.54-2.72-17.3966667-4.9866667-20.57-6.8-3.4-2.04-5.1-4.9866667-5.1-8.84 0-3.1733333 1.3033333-5.7233333 3.91-7.65 2.72-2.04 6.5166667-3.06 11.39-3.06 9.4066667 0 19.72 3.91 30.94 11.73l13.6-19.72c-12.58-10.08666667-27.3133333-15.13-44.2-15.13-12.24 0-22.2133333 3.28666667-29.92 9.86-7.82 6.5733333-11.73 15.2433333-11.73 26.01 0 11.1066667 3.57 19.4366667 10.71 24.99 5.44 4.3066667 15.0166667 8.2166667 28.73 11.73 9.6333333 2.4933333 16.0933333 4.8166667 19.38 6.97 3.06 2.04 4.59 4.76 4.59 8.16 0 7.7066667-5.7233333 11.56-17.17 11.56-12.0133333 0-23.8566667-4.8166667-35.53-14.45l-15.47 18.53c14.1666667 12.693333 30.9966667 19.04 50.49 19.04zm84.15951-.17c7.706667 0 14.506667-1.756667 20.4-5.27v-20.74c-3.966666 2.1533333-8.216666 3.23-12.75 3.23-5.553333 0-8.33-2.9466667-8.33-8.84v-38.93h21.42v-22.1h-21.42v-23.29h-25.84v23.29h-10.8799995v22.1h10.8799995v43.18c0 18.246667 8.84 27.37 26.52 27.37zm72.429511.51c14.053333 0 25.84-4.646667 35.36-13.94 9.406667-9.0666667 14.11-20.23 14.11-33.49 0-13.3733333-4.646667-24.5933333-13.94-33.66-9.406667-9.18-21.136667-13.77-35.19-13.77s-25.84 4.6466667-35.36 13.94c-9.406667 9.0666667-14.11 20.23-14.11 33.49 0 13.3733333 4.646667 24.5933333 13.94 33.66 9.406667 9.18 21.136667 13.77 35.19 13.77zm.34-22.27c-7.026667 0-12.806667-2.4933333-17.34-7.48-4.42-4.8733333-6.63-10.7666667-6.63-17.68 0-7.14 2.096667-13.0333333 6.29-17.68 4.42-4.9866667 10.2-7.48 17.34-7.48 7.026667 0 12.806667 2.4933333 17.34 7.48 4.42 4.8733333 6.63 10.7666667 6.63 17.68 0 7.14-2.096667 13.0333333-6.29 17.68-4.42 4.9866667-10.2 7.48-17.34 7.48zm84.15951 20.23v-33.66c0-21.42 9.236667-32.13 27.71-32.13h1.36v-27.03c-13.486666-.5666667-23.176666 6.12-29.07 20.06v-18.36h-25.84v91.12zm76.339511 2.04c15.64 0 28.05-5.666667 37.23-17l-14.79-13.09c-6.686667 6.2333333-14.053333 9.35-22.1 9.35-12.24 0-19.663333-5.95-22.27-17.85h63.41c.226667-3.1733333.34-5.44.34-6.8 0-13.94-3.57-25.4433333-10.71-34.51-8.046667-9.9733333-19.266667-14.96-33.66-14.96-13.033333 0-23.856667 4.6466667-32.47 13.94-8.386667 9.0666667-12.58 20.23-12.58 33.49 0 14.0533333 4.533333 25.5 13.6 34.34 8.84 8.726667 20.173333 13.09 34 13.09zm16.66-54.74h-38.93c2.266667-12.92 8.84-19.38 19.72-19.38 5.326667 0 9.69 1.7566667 13.09 5.27 3.286667 3.5133333 5.326667 8.2166667 6.12 14.11z" fill="#fff"/><path d="m478.767552 120.7c13.826667 0 24.593334-2.72 32.3-8.16 8.16-5.666667 12.24-13.8266667 12.24-24.48 0-14.0533333-7.423333-23.9133333-22.27-29.58 10.426667-5.8933333 15.64-14.45 15.64-25.67 0-8.2733333-2.72-15.13-8.16-20.57-7.026666-7.02666667-17.396666-10.54-31.11-10.54h-55.25v119zm-6.97-70.89h-24.14v-25.16h25.84c11.446667 0 17.17 4.08 17.17 12.24 0 8.6133333-6.29 12.92-18.87 12.92zm6.97 47.94h-31.11v-26.18h30.26c12.92 0 19.38 4.3066667 19.38 12.92 0 8.84-6.176666 13.26-18.53 13.26zm98.609511 24.99c14.053333 0 25.84-4.646667 35.36-13.94 9.406667-9.0666667 14.11-20.23 14.11-33.49 0-13.3733333-4.646667-24.5933333-13.94-33.66-9.406667-9.18-21.136667-13.77-35.19-13.77s-25.84 4.6466667-35.36 13.94c-9.406667 9.0666667-14.11 20.23-14.11 33.49 0 13.3733333 4.646667 24.5933333 13.94 33.66 9.406667 9.18 21.136667 13.77 35.19 13.77zm.34-22.27c-7.026667 0-12.806667-2.4933333-17.34-7.48-4.42-4.8733333-6.63-10.7666667-6.63-17.68 0-7.14 2.096667-13.0333333 6.29-17.68 4.42-4.9866667 10.2-7.48 17.34-7.48 7.026667 0 12.806667 2.4933333 17.34 7.48 4.42 4.8733333 6.63 10.7666667 6.63 17.68 0 7.14-2.096667 13.0333333-6.29 17.68-4.42 4.9866667-10.2 7.48-17.34 7.48zm103.02951 22.27c14.053334 0 25.84-4.646667 35.36-13.94 9.406667-9.0666667 14.11-20.23 14.11-33.49 0-13.3733333-4.646666-24.5933333-13.94-33.66-9.406666-9.18-21.136666-13.77-35.19-13.77-14.053333 0-25.84 4.6466667-35.36 13.94-9.406666 9.0666667-14.11 20.23-14.11 33.49 0 13.3733333 4.646667 24.5933333 13.94 33.66 9.406667 9.18 21.136667 13.77 35.19 13.77zm.34-22.27c-7.026666 0-12.806666-2.4933333-17.34-7.48-4.42-4.8733333-6.63-10.7666667-6.63-17.68 0-7.14 2.096667-13.0333333 6.29-17.68 4.42-4.9866667 10.2-7.48 17.34-7.48 7.026667 0 12.806667 2.4933333 17.34 7.48 4.42 4.8733333 6.63 10.7666667 6.63 17.68 0 7.14-2.096666 13.0333333-6.29 17.68-4.42 4.9866667-10.2 7.48-17.34 7.48zm90.279511 21.93c10.426667 0 18.7-2.38 24.82-7.14 6.686667-5.1 10.03-12.523333 10.03-22.27 0-7.5933333-3.003333-13.77-9.01-18.53-3.966667-3.06-10.143333-6.0066667-18.53-8.84l-3.57-1.19-3.4-1.19c-2.493333-.9066667-4.476667-1.7-5.95-2.38-3.74-1.8133333-5.61-3.8533333-5.61-6.12 0-4.42 3.173333-6.63 9.52-6.63 6.8 0 15.016667 2.8333333 24.65 8.5l9.86-17.85c-10.426667-7.0266667-21.76-10.54-34-10.54-9.52 0-17.34 2.4933333-23.46 7.48-6.573333 5.3266667-9.86 12.4666667-9.86 21.42 0 8.0466667 2.946667 14.45 8.84 19.21 3.966667 3.2866667 10.086667 6.12 18.36 8.5l3.74 1.02 3.4 1.19c2.606667.7933333 4.646667 1.4733333 6.12 2.04 3.74 1.7 5.61 3.7966667 5.61 6.29 0 4.76-3.626667 7.14-10.88 7.14-9.18 0-18.756667-3.6266667-28.73-10.88l-11.05 17c11.673333 9.18 24.706667 13.77 39.1 13.77zm72.93951-.17c7.706667 0 14.506667-1.756667 20.4-5.27v-20.74c-3.966666 2.1533333-8.216666 3.23-12.75 3.23-5.553333 0-8.33-2.9466667-8.33-8.84v-38.93h21.42v-22.1h-21.42v-23.29h-25.84v23.29h-10.88v22.1h10.88v43.18c0 18.246667 8.84 27.37 26.52 27.37z" fill="#e92053"/></g><g transform="matrix(.93358043 .35836795 -.35836795 .93358043 38.230877 -26.275354)"><rect fill="#e92053" height="180" rx="90" width="180"/><g transform="translate(31 26)"><path d="m47.7378106 109.095586 23.9666678 24.190136.0004734 19.824486c-4.1506929.586471-8.3924002.889792-12.7049518.889792-3.821443 0-7.5872584-.238171-11.2834118-.700477z" fill="#ff8095"/><path d="m59.5604572.84736724 59.3969698 59.39696966-16.970563 16.9705627-30.5423765-30.5435324.0000088 33.1534935 34.0375047 34.1949853c1.867119 1.875775 2.985987 4.214496 3.357034 6.645114l.012175.084988c.088318.587139.134096 1.188208.134096 1.79997l.000483 16.304102c-7.313732 4.893649-15.3847065 8.743861-23.9999791 11.33769l-.0013136-22.744849-34.016328-34.1737853c-.3188135-.3202917-.6158109-.654081-.8909945-.9995208-1.6471923-2.05417-2.6326775-4.662425-2.6326775-7.5008523l-.0000088-37.8703354-30.3104372 30.3125324-16.97056276-16.9705627z" fill="#fff"/></g></g></g></svg>