<svg height="60" viewBox="0 0 192 60" width="192" xmlns="http://www.w3.org/2000/svg"><path d="m107.040478 66c16.40968 0 29.759522 13.4577451 29.759522 29.9995165 0 16.5417715-13.349842 30.0004835-29.759522 30.0004835-16.4096792 0-29.760478-13.458712-29.760478-30.0004835 0-16.5417714 13.3507988-29.9995165 29.760478-29.9995165zm105.608212 52.258065c1.623772 0 2.87131 1.284557 2.87131 2.885768 0 1.636126-1.247538 2.920683-2.87131 2.920683-1.606863 0-2.88869-1.284557-2.88869-2.920683 0-1.601211 1.281827-2.885768 2.88869-2.885768zm0 .580451c-1.248008 0-2.17098 1.038217-2.17098 2.305317 0 1.284558.922972 2.304833 2.187889 2.304833 1.230629 0 2.136691-1.020275 2.136691-2.287376 0-1.284557-.906062-2.322774-2.1536-2.322774zm-105.608212-50.2790497c-15.0108009 0-27.2219324 12.3095146-27.2219324 27.4400502 0 15.1319865 12.2111315 27.4410175 27.2219324 27.4410175 15.009845 0 27.220498-12.309031 27.220498-27.4410175 0-15.1305356-12.210653-27.4400502-27.220498-27.4400502zm105.590832 51.1237827c.529828 0 .769378.088256.97417.211426.154063.12317.273838.351568.273838.633308 0 .316653-.23955.562994-.581495.668707v.034914c.273838.105713.427432.316654.512918.704106.085487.439824.136685.615851.205262.721079h-.700801c-.085487-.105228-.136685-.369511-.222171-.703622-.051198-.316653-.222171-.457281-.581026-.457281h-.307657v1.160903h-.649603v-2.885284c.256459-.053341.615315-.088256 1.076565-.088256zm-143.2777153-47.8767974c1.7983195 0 3.2642778.7088678 4.0220997 1.9443231.7578218 1.2364197.7230903 2.8600645-.0964764 4.4557403l-20.9898802 40.874184c-1.1461392 2.2298-2.6579239 2.564462-3.4625367 2.564462h-.0077181c-.8017186-.001929-2.3183271-.339485-3.4557834-2.580857l-20.7342179-40.8520023c-.8108838-1.5990514-.8393443-3.2241428-.0766987-4.4605626.7621633-1.2364197 2.2300512-1.9452875 4.0274059-1.9452875zm142.0792423 0c1.798292 0 3.264227.7088678 4.022037 1.9443231.758775 1.2359375.724044 2.8600645-.09551 4.4552581l-20.990519 40.8746662c-1.145639 2.2298-2.657883 2.564462-3.462483 2.564462h-.006271c-.802671-.001929-2.318774-.339485-3.457177-2.580857l-8.959914-17.654304-9.073814 17.669834c-1.145132 2.229713-2.657824 2.565327-3.461442 2.565327h-.007236c-.801688-.001929-2.318722-.339954-3.457101-2.581722l-20.733921-40.8513852c-.811336-1.5985073-.839795-3.2240181-.077178-4.46039.762134-1.2363718 2.23045-1.9452122 4.027737-1.9452122zm1.147276 48.3520204c-.170973 0-.290748.017458-.358856.034915v.827276h.307658c.358855 0 .649602-.12317.649602-.422367 0-.263797-.188351-.439824-.598404-.439824zm-143.2265183-45.8005786h-40.7738058c-.888065 0-1.5605052.2661871-1.8465577.7300856-.2865348.4638985-.2204485 1.1824108.1804108 1.9718098l20.7342179 40.8520022c.4423441.871377.9107369 1.181446 1.1779764 1.181446h.0009648c.2677219 0 .7375618-.307176 1.1832826-1.176142l20.9903626-40.8737018c.4037536-.7855412.4741813-1.5006779.1915056-1.9607186-.2826758-.4600408-.9522218-.7247812-1.8383572-.7247812zm96.9789613.0007982-20.632511-.0004147c-.887549 0-1.560929.2661768-1.846971.7295751-.286042.4638806-.22044 1.1828472.180404 1.9717335l20.734404 40.8513855c.442327.871825.911185 1.181883 1.178897 1.182847h.000965c.266747 0 .736569-.308611 1.182755-1.176096l9.922501-19.323722-10.3435-20.3816983c-.68448-1.3490037-.811769-2.7165402-.376944-3.8536101zm45.100281-.0007982-20.639736-.0003712c.430355 1.1366443.297524 2.5027167-.393859 3.8492273l-10.473242 20.3922505 9.801439 19.312791c.442337.871377.911205 1.181446 1.178923 1.181446.2682 0 .73755-.307176 1.183746-1.176142l20.99052-40.8737018c.403747-.7855412.473209-1.5006779.190538-1.9607186-.282189-.4600408-.952207-.7247812-1.838329-.7247812zm-24.959071.0003835-15.853766-.0002769-.160797.0045875c-.787933.0374277-1.382024.2971775-1.646069.7253915-.286048.4638985-.219962 1.1824108.180891 1.9718098l9.502975 18.7232112 9.623556-18.7398095c.403738-.7855108.474163-1.5006198.191498-1.9606427-.282182-.460023-.952186-.7242709-1.838288-.7242709z" fill="#f5626c" fill-rule="evenodd" transform="translate(-24 -66)"/></svg>