<svg height="160" viewBox="0 0 526 160" width="526" xmlns="http://www.w3.org/2000/svg"><path d="m424.158597 177.263626c30.350593-6.441202 60.779043 12.379543 67.836575 41.947816 3.558535 14.916709.984665 30.285994-7.231566 43.273543-8.216231 12.996691-21.007721 21.911059-36.025013 25.111089l-8.294089 1.760016c-4.218032.891437-8.472702-.032-11.95338-2.61031-2.899038-2.148591-4.946226-5.426336-5.761437-9.2618l-3.686771-17.298445-12.846448 2.724596c-10.721403 2.272021-21.277932-4.580613-23.549532-15.264141l-4.83173-22.674495c-4.254671-19.98647 8.568878-39.69408 28.578195-43.936405zm4.969125 67.420051 9.979469-2.116591c5.559925-1.179439 9.301653-6.304058 8.5414-11.666393-.416766-2.866312-1.951012-5.37605-4.337108-7.030922-2.376936-1.664015-5.253075-2.235449-8.078836-1.636587l-6.924716 1.472014c-1.918953.406861-3.155509 2.308593-2.747904 4.219467zm13.134978 10.573812-10.409974 2.208021 3.773787 17.737306c.100757.475433.361808.859437.764834 1.124582.407605.251431.865589.34286 1.328153.242288l7.40102-1.568014c11.623631-2.482309 21.983227-9.677804 28.417901-19.771612 6.311018-9.906377 8.381105-21.499627 5.798076-32.676873-5.294294-22.935069-28.381262-37.614061-51.445332-32.722588l-18.77734 3.986323c-12.947204 2.747454-21.245873 15.501857-18.48881 28.43912l4.827151 22.669923c.773992 3.638891 4.364586 5.974913 8.019298 5.197763l12.851028-2.724597-3.640972-17.092729c-1.873154-8.781796 3.769208-17.449304 12.567078-19.314464l6.654506-1.412585c12.585398-2.669739 24.946383 4.690329 28.143111 16.759012 1.671641 6.253772.709875 12.745261-2.679206 18.272169-3.41198 5.517765-8.770391 9.302943-15.104309 10.646955zm-37.13883 34.690149c12.571658-2.665167 24.973862 5.37605 27.648488 17.93388 2.670046 12.548687-5.381311 24.941945-17.948389 27.607112-12.585398 2.669739-24.992182-5.380621-27.662228-17.929308-2.674626-12.562402 5.376731-24.941945 17.962129-27.611684zm6.975095 32.75916c5.509546-1.170297 9.054341-6.596633 7.877323-12.109826-1.172439-5.508623-6.622448-9.033227-12.131994-7.86293-5.518706 1.170296-9.049762 6.596632-7.877323 12.109826 1.172439 5.508622 6.608708 9.033226 12.131994 7.86293zm104.720308-118.082462h14.417333v7.300639c4.236352-5.99777 10.034428-8.992083 17.385069-8.992083 7.70329 0 13.464727 2.605738 17.279733 7.826358 3.815006 5.225191 5.724799 12.384114 5.724799 21.481341 0 4.374898-.549581 8.36122-1.644163 11.954396-1.099161 3.602319-2.688365 6.688062-4.772192 9.2618s-4.611898 4.566899-7.579633 5.979484c-2.967736 1.412584-6.324758 2.112019-10.071066 2.112019-2.752484 0-5.495807-.493719-8.216231-1.476585-2.720425-.987438-5.280555-2.962313-7.68497-5.929197v26.244813h-14.838679zm14.733342 28.041402c0 3.597747.29769 6.473202.902229 8.621794.599959 2.153162 1.570884 3.899464 2.912777 5.238905 1.415171 1.270869 2.84866 2.098305 4.295889 2.48688s2.912778.580577 4.396646.580577c1.625843 0 3.182988-.315431 4.666856-.950866 1.483867-.635434 2.770802-1.641158 3.869964-3.01717 1.090001-1.376013 1.960171-3.154315 2.596768-5.34405.636598-2.185163.952607-4.832044.952607-7.936073 0-3.241173-.30227-5.961198-.902228-8.146361-.599959-2.185163-1.42891-3.968037-2.491433-5.344049-1.057943-1.376013-2.312819-2.363451-3.760048-2.962313-1.451809-.598863-2.986055-.90058-4.611898-.90058-1.841095 0-3.430299.246859-4.772192.740578s-2.647147 1.270869-3.920342 2.326879c-1.41517 1.344012-2.454794 3.035456-3.12803 5.083475-.673236 2.043448-1.007565 4.653757-1.007565 7.826358zm51.411899 21.269225c-4.877528-5.083476-7.314003-12.342971-7.314003-21.801344 0-4.512042.654917-8.585222 1.960171-12.219542 1.309834-3.634319 3.182988-6.701776 5.619463-9.206942 2.441054-2.505166 5.39047-4.425184 8.852829-5.769196 3.462358-1.33487 7.314002-2.006876 11.554933-2.006876 4.309629 0 8.197912.672006 11.660271 2.006876 3.462358 1.344012 6.411774 3.26403 8.852828 5.769196 2.436475 2.505166 4.291309 5.572623 5.564505 9.206942 1.273195 3.63432 1.909793 7.7075 1.909793 12.219542 0 4.589756-.654917 8.694937-1.960172 12.329256-1.314413 3.63432-3.182988 6.720062-5.619462 9.257229-2.441054 2.541737-5.390471 4.480041-8.852829 5.819482s-7.314003 2.011447-11.554934 2.011447c-8.903207 0-15.795864-2.537166-20.673393-7.61607zm20.673393-4.233182c4.240931 0 7.40102-1.517728 9.489427-4.553185 2.079247-3.030885 3.12345-7.369211 3.12345-13.014977 0-5.641195-1.044203-9.947521-3.12345-12.909834-2.088407-2.962313-5.248496-4.443469-9.489427-4.443469s-7.405599 1.481156-9.489426 4.443469-3.12345 7.268639-3.12345 12.909834c0 5.714338 1.021304 10.07095 3.073072 13.069835 2.047188 2.998884 5.230176 4.498327 9.539804 4.498327zm35.087063 10.157351v-75.552698h14.838678v75.552698zm23.957138 0v-75.552698h14.838678v75.552698zm23.850427-55.234796h14.417334v7.300639c4.240931-5.99777 10.039007-8.992083 17.389648-8.992083 7.69871 0 13.460147 2.605738 17.279733 7.826358 3.815006 5.225191 5.724799 12.384114 5.724799 21.481341 0 4.374898-.549581 8.36122-1.644163 11.954396-1.099161 3.602319-2.688365 6.688062-4.772192 9.2618s-4.611898 4.566899-7.579633 5.979484c-2.967736 1.412584-6.329338 2.112019-10.071066 2.112019-2.757063 0-5.495807-.493719-8.216232-1.476585-2.720424-.987438-5.285134-2.962313-7.684969-5.929197v26.244813h-14.843259zm14.737922 28.041402c0 3.597747.29769 6.473202.902229 8.621794.599959 2.153162 1.570884 3.899464 2.912777 5.238905 1.41517 1.270869 2.84408 2.098305 4.295889 2.48688 1.44265.388575 2.912778.580577 4.396646.580577 1.625843 0 3.182988-.315431 4.666856-.950866 1.483867-.635434 2.770802-1.641158 3.869964-3.01717 1.090001-1.376013 1.960171-3.154315 2.596768-5.34405.632018-2.185163.952607-4.832044.952607-7.936073 0-3.241173-.30227-5.961198-.902228-8.146361-.599959-2.185163-1.42891-3.968037-2.491433-5.344049-1.057943-1.376013-2.312819-2.363451-3.760048-2.962313-1.451809-.598863-2.990635-.90058-4.611898-.90058-1.841095 0-3.430299.246859-4.772192.740578s-2.651727 1.270869-3.924922 2.326879c-1.41059 1.344012-2.454794 3.035456-3.12345 5.083475-.673236 2.043448-1.007565 4.653757-1.007565 7.826358zm79.926435 20.211386c-2.189163 2.468595-4.643957 4.480042-7.368961 6.02977-2.715845 1.549729-6.233161 2.326879-10.54279 2.326879-2.477693 0-4.82715-.315431-7.048372-.950866-2.230381-.635434-4.172233-1.622872-5.834715-2.966884-1.662481-1.339441-2.986055-3.049171-3.9753-5.129191-.989245-2.080019-1.483868-4.566899-1.483868-7.46064 0-3.808035.84727-6.912064 2.546391-9.312086 1.69454-2.395451 3.920342-4.265182 6.677405-5.604623s5.848454-2.294878 9.274174-2.857169c3.430299-.566863 6.910977-.918866 10.442033-1.060582l7.10333-.315431v-2.752025c0-3.38746-.938867-5.714339-2.807441-6.985208-1.873154-1.270869-4.080637-1.906303-6.627027-1.906303-5.866774 0-9.223796 2.221735-10.071066 6.669776l-13.570063-1.270869c.989245-5.782911 3.535636-9.961235 7.634591-12.539544 4.098956-2.573739 9.608503-3.862893 16.537799-3.862893 4.240931 0 7.845264.512004 10.813 1.536014 2.967736 1.024009 5.353832 2.48688 7.153709 4.388612 1.804456 1.906303 3.10971 4.219467 3.920342 6.93035.815211 2.720025 1.222817 5.769196 1.222817 9.156656v34.916893h-13.995988zm-.316009-17.673306-6.572069.315432c-3.109711.146287-5.619463.461718-7.529255.955437-1.905214.493719-3.370762 1.110868-4.396646 1.851446s-1.71744 1.604586-2.065507 2.592024c-.357228.987438-.531262 2.080019-.531262 3.277744 0 1.837732.636598 3.282316 1.909793 4.342898 1.268616 1.056009 3.036433 1.5863 5.298874 1.5863 3.815006 0 6.924717-.882294 9.329132-2.646882 1.341893-.987437 2.436474-2.24002 3.283745-3.757749.84727-1.513156 1.273195-3.401174 1.273195-5.65948zm33.391606 7.089437c.494623 3.245745 1.804457 5.362336 3.920342 6.349773 2.120466.987438 4.666856 1.481157 7.634592 1.481157 3.531056 0 6.059127-.438861 7.579633-1.325727 1.520507-.882294 2.28076-2.308593 2.28076-4.283468 0-1.408013-.480883-2.646881-1.433489-3.702891-.952607-1.05601-2.775383-1.80116-5.459168-2.221735l-7.634592-1.270869c-6.709464-1.05601-11.710648-2.870884-14.998973-5.449193-3.283744-2.573738-4.927907-6.468631-4.927907-11.689251 0-2.683453.58164-5.083475 1.749499-7.200066s2.807441-3.913179 4.927907-5.394336c2.120465-1.481156 4.643956-2.628596 7.579633-3.437746 2.931097-.80915 6.164463-1.216011 9.700099-1.216011 4.382906 0 8.055937.438861 11.028253 1.321155 2.963155.882294 5.38589 2.061733 7.259044 3.54289 1.873155 1.481156 3.288325 3.245744 4.240931 5.289191.952607 2.052591 1.644162 4.237754 2.065508 6.560061l-13.249475 1.696016c-.636597-2.541738-1.749498-4.406898-3.338702-5.609195-1.589204-1.197725-4.153914-1.801159-7.68497-1.801159-1.98307 0-3.622653.164573-4.932487.480004-1.305254.315431-2.331138.726864-3.073072 1.216011-.741934.493719-1.273195 1.05601-1.589204 1.696016-.320589.630863-.480883 1.234297-.480883 1.796588 0 1.764588.549581 3.053742 1.644162 3.862893 1.099162.80915 3.233367 1.499442 6.416355 2.061733l6.997994 1.161154c3.883703.640006 7.09875 1.449156 9.645141 2.436594 2.54181.987437 4.570679 2.20802 6.095765 3.648033 1.520507 1.449156 2.57845 3.158887 3.178409 5.133762s.902228 4.269754.902228 6.880063c0 5.22062-1.98307 9.398944-5.935471 12.539545-3.961561 3.136029-10.071066 4.704043-18.342256 4.704043-3.320383 0-6.485052-.297145-9.484846-.896008-3.004375-.598863-5.69274-1.641158-8.060517-3.122315-2.367777-1.481156-4.309628-3.456031-5.830135-5.924626-1.520506-2.468594-2.381516-5.572623-2.596769-9.312086zm52.684178 0c.494623 3.245745 1.804457 5.362336 3.920342 6.349773 2.120466.987438 4.666856 1.481157 7.634592 1.481157 3.531056 0 6.059127-.438861 7.579633-1.325727 1.520507-.882294 2.28076-2.308593 2.28076-4.283468 0-1.408013-.476303-2.646881-1.433489-3.702891-.952607-1.05601-2.775383-1.80116-5.459168-2.221735l-7.630012-1.270869c-6.714044-1.05601-11.715228-2.870884-15.003553-5.449193-3.283744-2.573738-4.927907-6.468631-4.927907-11.689251 0-2.683453.58164-5.083475 1.749499-7.200066s2.807441-3.913179 4.927907-5.394336c2.120465-1.481156 4.648536-2.628596 7.584213-3.437746 2.926517-.80915 6.164463-1.216011 9.695519-1.216011 4.382906 0 8.060517.438861 11.028253 1.321155 2.967735.882294 5.38589 2.061733 7.259044 3.54289 1.873155 1.481156 3.288325 3.245744 4.240931 5.289191.952607 2.052591 1.644162 4.237754 2.065508 6.560061l-13.249475 1.696016c-.636597-2.541738-1.749498-4.406898-3.338702-5.609195-1.589204-1.197725-4.153914-1.801159-7.68497-1.801159-1.98307 0-3.622653.164573-4.932487.480004-1.305254.315431-2.331138.726864-3.073072 1.216011-.741934.493719-1.273195 1.05601-1.589204 1.696016-.316009.630863-.476303 1.234297-.476303 1.796588 0 1.764588.545001 3.053742 1.644162 3.862893 1.094582.80915 3.228787 1.499442 6.411775 2.061733l6.997994 1.161154c3.883703.640006 7.09875 1.449156 9.645141 2.436594 2.54639.987437 4.575259 2.20802 6.095765 3.648033 1.520507 1.449156 2.57845 3.158887 3.178409 5.133762s.902228 4.269754.902228 6.880063c0 5.22062-1.97849 9.398944-5.935471 12.539545-3.961561 3.136029-10.071066 4.704043-18.342256 4.704043-3.320383 0-6.480472-.297145-9.484846-.896008-3.004375-.598863-5.69274-1.641158-8.055937-3.122315-2.367777-1.481156-4.314208-3.456031-5.830135-5.924626-1.520507-2.468594-2.386096-5.572623-2.601349-9.312086z" fill="#fff" fill-rule="evenodd" transform="translate(-377 -176)"/></svg>